<?xml version="1.0" encoding="utf-8"?>
<!-- Generator: Adobe Illustrator 15.1.0, SVG Export Plug-In  -->
<!DOCTYPE svg PUBLIC "-//W3C//DTD SVG 1.1//EN" "http://www.w3.org/Graphics/SVG/1.1/DTD/svg11.dtd" [
	<!ENTITY ns_flows "http://ns.adobe.com/Flows/1.0/">
]>
<svg version="1.1"
	 xmlns="http://www.w3.org/2000/svg" xmlns:xlink="http://www.w3.org/1999/xlink" xmlns:a="http://ns.adobe.com/AdobeSVGViewerExtensions/3.0/"
	 x="0px" y="0px" width="40px" height="30px" viewBox="0 -2.6 40 30" overflow="visible" enable-background="new 0 -2.6 40 30"
	 xml:space="preserve">
<defs>
</defs>
<circle fill="#231F20" cx="32.006" cy="6.652" r="4.765"/>
<circle fill="#231F20" cx="14.606" cy="12.954" r="3.231"/>
<circle fill="#231F20" cx="22.791" cy="10.932" r="3.667"/>
<path fill="#231F20" d="M14.23,5.227c0,2.884-2.338,5.222-5.223,5.222c-2.885,0-5.226-2.337-5.226-5.222C3.781,2.34,6.122,0,9.007,0
	C11.892,0,14.23,2.34,14.23,5.227z"/>
<path fill="#231F20" d="M8.716,23.314H0.059c0,0-0.132-4.555,0-5.513c0.434-3.204,2.327-4.921,5.756-5.949
	c1.752-0.526,2.387-0.437,4.304-0.437c-0.122,0.636-0.339,1.694,0,2.661c0.338,0.969,1.257,2.107,1.257,2.107
	s-1.982,1.182-2.368,2.826C8.619,20.656,8.716,23.314,8.716,23.314z"/>
<path fill="#231F20" d="M10.071,23.314c0,0-0.037-2.719,0-3.481c0.035-0.762,0.871-2.903,4.535-2.903
	c3.663,0,4.324,2.359,4.361,2.866c0.034,0.51-0.009,3.519-0.009,3.519H10.071z"/>
<path fill="#231F20" d="M20.372,23.314c0,0,0.182-3.229-0.145-4.209c-0.326-0.978-1.741-2.176-1.741-2.176s0.689-0.942,2.611-1.27
	c1.923-0.326,3.918-0.034,5.188,0.691c1.272,0.725,2.071,1.886,2.069,3.336c0,0.812,0,3.627,0,3.627H20.372z"/>
<path fill="#231F20" d="M29.987,23.314c0,0,0.072-0.488-0.167-3.409c-0.088-1.055-0.584-2.667-1.211-3.52
	c-1.047-1.419-2.433-1.788-2.433-1.788s1.67-2.165,6.275-2.165c3.774,0,7.729,1.523,7.546,5.805c-0.048,1.157,0,5.077,0,5.077
	H29.987z"/>
</svg>
